<mxfile host="app.diagrams.net" modified="2023-07-03T13:39:16.697Z" agent="Mozilla/5.0 (Windows NT 10.0; Win64; x64; rv:109.0) Gecko/20100101 Firefox/114.0" version="21.3.8" etag="sWTAzEVSp2FWpTVu5GFn" type="github">
  <diagram name="Page-1" id="Dmfi-ou0-zPWFfY0tgg-">
    <mxGraphModel>
      <root>
        <mxCell id="0" />
        <mxCell id="1" parent="0" />
      </root>
    </mxGraphModel>
  </diagram>
</mxfile>
